HIERARCHY
ROOT hips
{
  OFFSET 0 10.6860622 2.3727825e-15
  CHANNELS 6 Xposition Yposition Zposition Yrotation Xrotation Zrotation
  JOINT leftUpperLeg
  {
    OFFSET 0.6642549969 -0.9402397400000004 0
    CHANNELS 3 Yrotation Xrotation Zrotation
    JOINT leftLowerLeg
    {
      OFFSET 0 -3.997221335632195 0
      CHANNELS 3 Yrotation Xrotation Zrotation
      JOINT leftFoot
      {
        OFFSET -0.13777839790000004 -4.6145792000000005 -0.22186036399999998
        CHANNELS 3 Yrotation Xrotation Zrotation
        JOINT leftToes
        {
          OFFSET -0.03777410834999995 -0.9130806927000008 0.85230013
          CHANNELS 3 Yrotation Xrotation Zrotation
          End Site
          {
            OFFSET -0.03777410834999995 -0.9130806927000008 0.85230013
          }
        }
      }
    }
  }
  JOINT rightUpperLeg
  {
    OFFSET -0.6642778626 -0.9402397400000004 0
    CHANNELS 3 Yrotation Xrotation Zrotation
    JOINT rightLowerLeg
    {
      OFFSET 0 -3.997221452859387 0
      CHANNELS 3 Yrotation Xrotation Zrotation
      JOINT rightFoot
      {
        OFFSET 0.1377926176 -4.6145792000000005 -0.22185782299999995
        CHANNELS 3 Yrotation Xrotation Zrotation
        JOINT rightToes
        {
          OFFSET 0.037780746850000047 -0.9130806927000008 0.85230167
          CHANNELS 3 Yrotation Xrotation Zrotation
          End Site
          {
            OFFSET 0.037780746850000047 -0.9130806927000008 0.85230167
          }
        }
      }
    }
  }
  JOINT spine
  {
    OFFSET 0 0.13988381660000015 0
    CHANNELS 3 Yrotation Xrotation Zrotation
    JOINT chest
    {
      OFFSET 0 0.6191039003973773 0
      CHANNELS 3 Yrotation Xrotation Zrotation
      JOINT upperChest
      {
        OFFSET 0 0.9855186130586943 0
        CHANNELS 3 Yrotation Xrotation Zrotation
        JOINT leftShoulder
        {
          OFFSET 0.1807663869 1.5087829790000005 0
          CHANNELS 3 Yrotation Xrotation Zrotation
          JOINT leftUpperArm
          {
            OFFSET 0.5985063006419806 0 0
            CHANNELS 3 Yrotation Xrotation Zrotation
            JOINT leftLowerArm
            {
              OFFSET 2.2993332369501065 0 0
              CHANNELS 3 Yrotation Xrotation Zrotation
              JOINT leftHand
              {
                OFFSET 2.395047042602395 0 0
                CHANNELS 3 Yrotation Xrotation Zrotation
                JOINT leftIndexProximal
                {
                  OFFSET 0.5766295810000004 0.04556643899499946 0.17265095988184
                  CHANNELS 3 Yrotation Xrotation Zrotation
                  JOINT leftIndexIntermediate
                  {
                    OFFSET 0.2957229000000008 -0.019352197700001517 -0.007932640616999987
                    CHANNELS 3 Yrotation Xrotation Zrotation
                    JOINT leftIndexDistal
                    {
                      OFFSET 0.19008243099999922 -0.012484908149998475 -0.002786250786000012
                      CHANNELS 3 Yrotation Xrotation Zrotation
                      End Site
                      {
                        OFFSET 0.19008243099999922 -0.012484908149998475 -0.002786250786000012
                      }
                    }
                  }
                }
                JOINT leftMiddleProximal
                {
                  OFFSET 0.5834975091000001 0.0524350405149987 0.02204081888183999
                  CHANNELS 3 Yrotation Xrotation Zrotation
                  JOINT leftMiddleIntermediate
                  {
                    OFFSET 0.33880573540000003 -0.019871473270000717 -0.00000971183179999946
                    CHANNELS 3 Yrotation Xrotation Zrotation
                    JOINT leftMiddleDistal
                    {
                      OFFSET 0.20676022730000088 -0.012221336379999448 0.0001471936708000235
                      CHANNELS 3 Yrotation Xrotation Zrotation
                      End Site
                      {
                        OFFSET 0.20676022730000088 -0.012221336379999448 0.0001471936708000235
                      }
                    }
                  }
                }
                JOINT leftLittleProximal
                {
                  OFFSET 0.5344154683999995 -0.012880921405001189 -0.24414037221816004
                  CHANNELS 3 Yrotation Xrotation Zrotation
                  JOINT leftLittleIntermediate
                  {
                    OFFSET 0.21758961730000093 -0.011650919939999227 0.011893592810000034
                    CHANNELS 3 Yrotation Xrotation Zrotation
                    JOINT leftLittleDistal
                    {
                      OFFSET 0.1475273964999999 -0.008152365682999818 0.006001092492999946
                      CHANNELS 3 Yrotation Xrotation Zrotation
                      End Site
                      {
                        OFFSET 0.1475273964999999 -0.008152365682999818 0.006001092492999946
                      }
                    }
                  }
                }
                JOINT leftRingProximal
                {
                  OFFSET 0.5799399463000003 0.026911854694997794 -0.12150566991816003
                  CHANNELS 3 Yrotation Xrotation Zrotation
                  JOINT leftRingIntermediate
                  {
                    OFFSET 0.26167887460000006 -0.013480186499999602 0.010996293000000053
                    CHANNELS 3 Yrotation Xrotation Zrotation
                    JOINT leftRingDistal
                    {
                      OFFSET 0.17667108799999987 -0.008990287899999228 0.0055541023999999065
                      CHANNELS 3 Yrotation Xrotation Zrotation
                      End Site
                      {
                        OFFSET 0.17667108799999987 -0.008990287899999228 0.0055541023999999065
                      }
                    }
                  }
                }
                JOINT leftThumbProximal
                {
                  OFFSET 0.11018806699999972 -0.09448718900500053 0.17047963138184
                  CHANNELS 3 Yrotation Xrotation Zrotation
                  JOINT leftThumbIntermediate
                  {
                    OFFSET 0.31062601459999983 -0.08126270900000132 0.15443142000000007
                    CHANNELS 3 Yrotation Xrotation Zrotation
                    JOINT leftThumbDistal
                    {
                      OFFSET 0.21627175790000086 -0.08833193599999878 0.018771167799999988
                      CHANNELS 3 Yrotation Xrotation Zrotation
                      End Site
                      {
                        OFFSET 0.21627175790000086 -0.08833193599999878 0.018771167799999988
                      }
                    }
                  }
                }
              }
            }
          }
        }
        JOINT neck
        {
          OFFSET 0 1.5463305265074576 0
          CHANNELS 3 Yrotation Xrotation Zrotation
          JOINT head
          {
            OFFSET 0 0.8456443600000344 0
            CHANNELS 3 Yrotation Xrotation Zrotation
            JOINT leftEye
            {
              OFFSET 0.30408573140000006 0.5104519199999995 0.1276382305
              CHANNELS 3 Yrotation Xrotation Zrotation
              End Site
              {
                OFFSET 0.30408573140000006 0.5104519199999995 0.1276382305
              }
            }
            JOINT rightEye
            {
              OFFSET -0.30409491089999996 0.5104519199999995 0.1276379445
              CHANNELS 3 Yrotation Xrotation Zrotation
              End Site
              {
                OFFSET -0.30409491089999996 0.5104519199999995 0.1276379445
              }
            }
            JOINT jaw
            {
              OFFSET -3.155239131000001e-7 -0.11984121820000082 0.60178107
              CHANNELS 3 Yrotation Xrotation Zrotation
              End Site
              {
                OFFSET -3.155239131000001e-7 -0.11984121820000082 0.60178107
              }
            }
          }
        }
        JOINT rightShoulder
        {
          OFFSET -0.1807303465 1.5087829790000005 0
          CHANNELS 3 Yrotation Xrotation Zrotation
          JOINT rightUpperArm
          {
            OFFSET -0.5985063796536958 0 0
            CHANNELS 3 Yrotation Xrotation Zrotation
            JOINT rightLowerArm
            {
              OFFSET -2.2993322059002854 0 0
              CHANNELS 3 Yrotation Xrotation Zrotation
              JOINT rightHand
              {
                OFFSET -2.395045314457259 0 0
                CHANNELS 3 Yrotation Xrotation Zrotation
                JOINT rightIndexProximal
                {
                  OFFSET -0.5764487688300002 0.0441371204405987 0.17361932004999997
                  CHANNELS 3 Yrotation Xrotation Zrotation
                  JOINT rightIndexIntermediate
                  {
                    OFFSET -0.29573011380000047 -0.01934826376999843 -0.007698921482999974
                    CHANNELS 3 Yrotation Xrotation Zrotation
                    JOINT rightIndexDistal
                    {
                      OFFSET -0.19008373999999884 -0.012503266380000655 -0.0026365778999999897
                      CHANNELS 3 Yrotation Xrotation Zrotation
                      End Site
                      {
                        OFFSET -0.19008373999999884 -0.012503266380000655 -0.0026365778999999897
                      }
                    }
                  }
                }
                JOINT rightMiddleProximal
                {
                  OFFSET -0.5834852037300005 0.05211639405060153 0.02307162440000001
                  CHANNELS 3 Yrotation Xrotation Zrotation
                  JOINT rightMiddleIntermediate
                  {
                    OFFSET -0.33880114510000003 -0.019952774050000954 0.0002455003561999819
                    CHANNELS 3 Yrotation Xrotation Zrotation
                    JOINT rightMiddleDistal
                    {
                      OFFSET -0.20675694929999955 -0.012273788999999091 0.00030209124000002766
                      CHANNELS 3 Yrotation Xrotation Zrotation
                      End Site
                      {
                        OFFSET -0.20675694929999955 -0.012273788999999091 0.00030209124000002766
                      }
                    }
                  }
                }
                JOINT rightLittleProximal
                {
                  OFFSET -0.5346811737299992 -0.011214256288399227 -0.24363941305000003
                  CHANNELS 3 Yrotation Xrotation Zrotation
                  JOINT rightLittleIntermediate
                  {
                    OFFSET -0.21757715980000092 -0.011771559690000988 0.01201554387
                    CHANNELS 3 Yrotation Xrotation Zrotation
                    JOINT rightLittleDistal
                    {
                      OFFSET -0.1475201849000004 -0.00822055339600003 0.006082065407000015
                      CHANNELS 3 Yrotation Xrotation Zrotation
                      End Site
                      {
                        OFFSET -0.1475201849000004 -0.00822055339600003 0.006082065407000015
                      }
                    }
                  }
                }
                JOINT rightRingProximal
                {
                  OFFSET -0.5800810755299999 0.027657985680600072 -0.12066365025000003
                  CHANNELS 3 Yrotation Xrotation Zrotation
                  JOINT rightRingIntermediate
                  {
                    OFFSET -0.26166445029999974 -0.013623118409999302 0.011164098990000045
                    CHANNELS 3 Yrotation Xrotation Zrotation
                    JOINT rightRingDistal
                    {
                      OFFSET -0.17666387530000027 -0.009072900100000503 0.005668185599999959
                      CHANNELS 3 Yrotation Xrotation Zrotation
                      End Site
                      {
                        OFFSET -0.17666387530000027 -0.009072900100000503 0.005668185599999959
                      }
                    }
                  }
                }
                JOINT rightThumbProximal
                {
                  OFFSET -0.10997596379000074 -0.09577489355940072 0.16989765924999997
                  CHANNELS 3 Yrotation Xrotation Zrotation
                  JOINT rightThumbIntermediate
                  {
                    OFFSET -0.31036620999999986 -0.08229339117999834 0.15440884469999996
                    CHANNELS 3 Yrotation Xrotation Zrotation
                    JOINT rightThumbDistal
                    {
                      OFFSET -0.21631306399999906 -0.08825326400000111 0.018656797720000014
                      CHANNELS 3 Yrotation Xrotation Zrotation
                      End Site
                      {
                        OFFSET -0.21631306399999906 -0.08825326400000111 0.018656797720000014
                      }
                    }
                  }
                }
              }
            }
          }
        }
      }
    }
  }
}
MOTION
Frames: 4
Frame Time: 0.03333333333333333
0.014610444195568562 -3.377301080157471 -0.4258320927619934 -3.083101483816263 6.986603070199178 -3.259048942950389 -52.65705145877836 -75.59743353629742 69.32624140108761 12.40884957179122 88.24386543507777 10.112161198153958 2.969646576627599 17.0688650961701 -12.270670604668927 -0.32684298591538086 -28.77231270766605 1.3201059098190602 -19.099395421150753 -79.82954270635166 8.31285279339738 3.8208274927827373 63.66718015348276 5.629015533208606 -1.1799092357861187 9.896466907877112 1.1275610868269128 0.0000016317020044583868 4.774419687875966e-7 -0.0000025826136582363673 -1.1905108709604488 10.30073799640939 0.16271839214045972 -7.1041757625139725 41.089747351860915 -2.678162184857317 0 0 0 -9.17674617444986 7.520531389112182 -10.382762796160295 -27.687910753574172 -22.182451127791413 -37.584072416658174 -87.41560078450308 2.188533301441735 0.7396709085858088 -52.70278201119019 78.50359035076073 -92.06754798262 0.39862189816988375 -11.013100586932884 -19.157557673403915 1.563413240971968 0.6816244543594681 -22.933879894433833 -1.281281483810888e-10 1.793762613445802e-24 1.6042536111691759e-12 0.621050276222505 -4.785475181863101 -33.83642796708414 -1.9139624754139728 -0.6886162398006432 -35.07937579775982 1.139979627027678e-10 6.3611093629270335e-15 -1.43444452663829e-12 -2.266642547589355 2.3551563775183464 -51.16697368324478 -8.324702280800237 -3.820432707605664 -48.370626482364706 0.000005171787096003275 -0.000002691295807034599 -0.00000456770317490879 2.2027553449824464 -0.5798845826693898 -40.55633050776442 -2.8761000003947537 -1.4614851361944667 -40.32693981238091 -0.000007395308090260151 -0.000007459581146374227 -0.0000022963152906957437 14.001867452501696 3.6194906757983913 -5.966741507971392 9.406869546238465 3.2459022878818935 2.0823662478808167 -0.000001702556620541409 0.000007672904867303355 -0.0000013851907984277488 8.822220401573901 -8.878408036914276 -3.395275015921741 2.9854166636378223 -39.96438661056384 -0.8591379189744824 0 0 0 0 0 0 0 0 0 0.0000017288206742123119 0.000013499857729918284 -0.000026478053196088515 28.25928505548742 -21.518954780854127 49.12529274298205 74.74807111074652 1.9430807932636214 -0.7142489547672106 -2.5481993104695673 57.99161604916699 -21.796020404471406 -0.537107149443225 0.5327553885156331 32.31858309016001 -0.8988066119491751 0.0919459983480569 17.146191954586993 3.933694872703174e-10 3.1805546814635168e-15 -4.874754472204794e-12 -1.0329584767586437 -0.5653848609639505 29.384606903649544 1.0767157972863899 -0.20268752701060877 17.092962667617112 1.215836204053751e-9 -3.180554491887685e-15 -1.6036856771618462e-11 -18.112043695257306 -8.158541028532854 45.23631761007052 2.2995798833221435 -0.4486451868091587 20.58824137411738 1.6628260911929426e-9 -3.1805543023118527e-15 -2.179830267765673e-11 -14.021700426216889 -6.563451027610934 33.823838039850706 0.3226306155071534 -0.2290481757667656 18.85546007439896 -4.3803240153668535e-10 2.0219334966109398e-23 5.2894833502657416e-12 2.8215732368504938 -29.022965020407746 0.562617531596335 -22.16165502786651 5.756512518823108 -7.450507454200729 0.000003847386213757909 -0.0000011525209592598412 0.000004344285950975823
0.014519383199512959 -3.377453668048096 -0.42560410499572754 -3.092876220233935 6.984451813322203 -3.264450974272265 -52.67444190040248 -75.59083091332987 69.35270289003901 12.387241132636428 88.24844037422879 10.091280819553267 2.95983051764312 17.08252129218279 -12.275725492789318 -0.3269165820373675 -28.774420524930036 1.3201454715458127 -19.119389937775466 -79.82786021941261 8.342287424581302 3.8209496680078576 63.670814246722266 5.629134347175362 -1.1784709399125908 9.892703849352175 1.1281266051757308 0.00009530697125440175 0.000012419880999165982 -0.0003162972892698835 -1.1824323093950784 10.272604750216018 0.16520441347443926 -7.0555222785331315 40.9788803020087 -2.64680298895009 0 0 0 -9.185970022642792 7.477303948430719 -10.316983779401712 -27.843055665448897 -22.191430001141256 -37.66113783948676 -87.19115768115988 2.1440324832775866 0.7685148925531263 -52.64907966157261 78.49889633746923 -92.02695707352444 0.40709515153014364 -11.015124600218256 -19.190234081818677 1.5634405399840452 0.6816347003682784 -22.934423204020817 -1.281281483810888e-10 1.793762613445802e-24 1.6042536111691759e-12 0.617062218039973 -4.790259776367062 -33.85342868905594 -1.9139000661427044 -0.6885543901055889 -35.078008429047856 1.139979627027678e-10 6.3611093629270335e-15 -1.43444452663829e-12 -2.271385876811363 2.3490523027074985 -51.19310389852767 -8.325446719453995 -3.8213807961989636 -48.376455967745116 0.000005171787096003275 -0.000002691295807034599 -0.00000456770317490879 2.2020399315410835 -0.5809623671174992 -40.568154884095314 -2.8763618680392327 -1.461720213874712 -40.330053839253175 -0.000007395308090260151 -0.000007459581146374227 -0.0000022963152906957437 14.02511056546828 3.629219247367861 -5.9635404073655165 9.417413923217158 3.253780774457604 2.0832540460892957 -0.000001702556620541409 0.000007672904867303355 -0.0000013851907984277488 8.829407180014517 -8.837296877371651 -3.411964100798948 3.0499448362490202 -39.90076557774513 -0.8986598126466233 0 0 0 0 0 0 0 0 0 -0.02789647304563359 -0.005416884467341866 0.07138602063110291 28.231233883408596 -21.505170922389308 49.04475515039211 74.85112506308447 1.9784073655514434 -0.6990077864386889 -2.433103157931308 57.882790728652296 -21.668765232658373 -0.5370995188468437 0.5327457831468878 32.31857837809933 -0.8988117339673848 0.09193812094200661 17.146197856370843 3.933694872703174e-10 3.1805546814635168e-15 -4.874754472204794e-12 -1.0329720288723079 -0.5653932923892109 29.38459927613921 1.0767191050957496 -0.20268449876325925 17.092962667617112 1.215836204053751e-9 -3.180554491887685e-15 -1.6036856771618462e-11 -18.112071505824378 -8.158557416088003 45.23631030161456 2.2995807364344008 -0.44864422628436 20.58826256089789 1.6628260911929426e-9 -3.1805543023118527e-15 -2.179830267765673e-11 -14.02169458962054 -6.563467356330838 33.82385043435098 0.3226397668214332 -0.22905135076288297 18.855446555493224 -4.3803240153668535e-10 2.0219334966109398e-23 5.2894833502657416e-12 2.8215671418574013 -29.022961114877504 0.5625924136295241 -22.16163495475754 5.756520670782124 -7.450501498207262 0.000003847386213757909 -0.0000011525209592598412 0.000004344285950975823
0.014205126091837883 -3.377587659289551 -0.4253774583339691 -3.1142353569887593 6.970276645434699 -3.277515124029956 -52.67544515433494 -75.56727229525045 69.37139377903708 12.251633580066557 88.25650345551105 9.95565346887136 2.9420975015307187 17.096575089162123 -12.285578614441913 -0.3266193589137039 -28.768040709562847 1.319974619181594 -19.14566565663055 -79.81274951853314 8.392196075319472 3.818899384198016 63.67380194340908 5.626328863111817 -1.1800578890722113 9.888146983576377 1.127546692551192 0.00034256992728244677 0.00005561236561596413 -0.0011972195199035935 -1.1673807061488892 10.217791065868735 0.17074700338007023 -6.965136336122433 40.76280679283505 -2.585919951524484 0 0 0 -9.225511426547195 7.388899834316243 -10.163739846297114 -28.118082078939434 -22.227738608894597 -37.84927351995492 -86.74439200247588 2.053250021821671 0.8284491354026353 -52.52513108871203 78.49446103267435 -91.92823942810713 0.37786457501232495 -11.022178747581949 -19.16603324648396 1.5633002702725873 0.6815438737701042 -22.931573459951576 -1.281281483810888e-10 1.793762613445802e-24 1.6042536111691759e-12 0.609406092019584 -4.792433395851896 -33.82673907797153 -1.9137496468384478 -0.6884520899646243 -35.075404648596866 1.139979627027678e-10 6.3611093629270335e-15 -1.43444452663829e-12 -2.270974060055038 2.3501851455386373 -51.16892320043618 -8.327252501164919 -3.8236911247769676 -48.39095114405314 0.000005171787096003275 -0.000002691295807034599 -0.00000456770317490879 2.2039883634003474 -0.5790160903746301 -40.562769468282596 -2.875689882395002 -1.4611405264515527 -40.32196234325979 -0.000007395308090260151 -0.000007459581146374227 -0.0000022963152906957437 14.026640956927373 3.6320299617182394 -5.967497230553858 9.400769553975213 3.2413242766175228 2.081825363805991 -0.000001702556620541409 0.000007672904867303355 -0.0000013851907984277488 8.846534517002556 -8.724989035465507 -3.4544778210110163 3.2333285473957734 -39.720573327595645 -1.0365752090460678 0 0 0 0 0 0 0 0 0 -0.07267060641986374 -0.01553887231782961 0.18504658697342827 28.15458118339251 -21.50076440122468 48.91985335736663 75.05446125573606 2.0514544512406783 -0.667999359382829 -2.1836540890534106 57.674863915327066 -21.405422115311758 -0.5371101910096094 0.5327488248469889 32.31857837809933 -0.898801596639664 0.09195080750111641 17.14619032292843 3.933694872703174e-10 3.1805546814635168e-15 -4.874754472204794e-12 -1.032949406446284 -0.565386141686774 29.38460392777677 1.0767200654274978 -0.20268112366819632 17.092953503167955 1.215836204053751e-9 -3.180554491887685e-15 -1.6036856771618462e-11 -18.11206223563516 -8.15854189103574 45.23631761007052 2.2995903339472217 -0.4486432657595614 20.588232180473398 1.6628260911929426e-9 -3.1805543023118527e-15 -2.179830267765673e-11 -14.021701260016341 -6.563460481080286 33.823855203692744 0.32262255808173895 -0.22905839445175097 18.855452506981962 -4.3803240153668535e-10 2.0219334966109398e-23 5.2894833502657416e-12 2.821565088365069 -29.022976736999347 0.562631032911188 -22.161631775928118 5.756531397044166 -7.450510451848336 0.000003847386213757909 -0.0000011525209592598412 0.000004344285950975823
0.013669044710695744 -3.3775657247802737 -0.4256446361541748 -3.139674278789028 6.939414021570026 -3.296376662009981 -52.62811767000294 -75.52588224838308 69.34494710183752 12.110734046510007 88.26212482046175 9.813364125955662 2.9324196663397757 17.097200362162745 -12.296228697258542 -0.3260906228140604 -28.75556661874791 1.3196585616413732 -19.196471129087147 -79.77720513523279 8.471664714490286 3.812673749886624 63.670159767579015 5.617629494717319 -1.180811009718625 9.888496242829259 1.1229649537929813 0.0006432871241885973 0.00008594064340372255 -0.0022367650141563835 -1.1543432164402456 10.166940388436323 0.17716992171675158 -6.887327473261715 40.56217646841365 -2.5287264656571122 0 0 0 -9.288793109316652 7.298449328074219 -9.979994235491938 -28.339399457854736 -22.309298515732706 -38.08283931173977 -86.30157115768544 1.9600480735321786 0.8911260158948844 -52.41439279675057 78.41547319004601 -91.84311751814572 0.3258115908781285 -11.02740031727177 -19.076735846145887 1.562501807327118 0.6810731977717431 -22.915932533474308 -1.281281483810888e-10 1.793762613445802e-24 1.6042536111691759e-12 0.6022469101222228 -4.785906132418751 -33.729419747857165 -1.9136569433291597 -0.6883913075657896 -35.07361283228035 1.139979627027678e-10 6.3611093629270335e-15 -1.43444452663829e-12 -2.2604091912556195 2.3646925793068014 -51.077428034376226 -8.328064121029234 -3.8247080991632725 -48.39731448143964 0.000005171787096003275 -0.000002691295807034599 -0.00000456770317490879 2.2126822006764537 -0.5689226987534343 -40.49379886712386 -2.874763961601147 -1.4602695010080238 -40.31084649901821 -0.000007395308090260151 -0.000007459581146374227 -0.0000022963152906957437 13.986278941512216 3.61563460761923 -5.972699942416332 9.359372226130144 3.210336126034816 2.0783069326267016 -0.000001702556620541409 0.000007672904867303355 -0.0000013851907984277488 8.875907009862031 -8.547888942525097 -3.5187603958409643 3.579320437293961 -39.39740172915918 -1.325456315674921 0 0 0 0 0 0 0 0 0 -0.10149482667362009 -0.02466553307475481 0.2535865672419936 28.03993100001225 -21.54061882123719 48.85726904031354 75.25139010232127 2.1274519937119134 -0.6363058800179514 -1.883487486555804 57.48416763555681 -21.11212624016326 -0.5370906075909057 0.5327505324680989 32.31858780222086 -0.898805864988185 0.09195474953920033 17.146197856370843 3.933694872703174e-10 3.1805546814635168e-15 -4.874754472204794e-12 -1.0329518607661041 -0.5653909443973649 29.38460392777677 1.0767350039212813 -0.2026858061123352 17.09296756401801 1.215836204053751e-9 -3.180554491887685e-15 -1.6036856771618462e-11 -18.112054604978486 -8.158544478544409 45.23633467654875 2.2995803098782726 -0.4486449199967146 20.588232180473398 1.6628260911929426e-9 -3.1805543023118527e-15 -2.179830267765673e-11 -14.021685418726014 -6.5634609107834425 33.823838039850706 0.32263659187566457 -0.22904454719977518 18.855450891053987 -4.3803240153668535e-10 2.0219334966109398e-23 5.2894833502657416e-12 2.821546175080676 -29.02296892593813 0.5626117729536606 -22.161641017775597 5.7565189545802165 -7.450503199919698 0.000003847386213757909 -0.0000011525209592598412 0.000004344285950975823
